<svg width="1440" height="213" viewBox="0 0 1440 213" fill="none" xmlns="http://www.w3.org/2000/svg">
<path d="M595 27C1185.4 193 1454 156.667 1464.5 122.5L1418 303.481L-58 254.481C-47.7419 237.273 -21.3329 222.01 -6.56761 213.053C-3.89118 211.429 -1.59726 210.013 0.148495 208.83C0.786232 208.388 1.40401 207.945 2 207.5C91 56.0001 323.716 -51.7946 595 27Z" fill="black" fill-opacity="0.9"/>
<path d="M-58 240.981C-45.7535 230.36 -14.0141 219.448 2 207.5M2 207.5C91 56.0001 323.716 -51.7946 595 27C1185.4 193 1454 156.667 1464.5 122.5L1418 303.481L-58 254.481C-45.124 232.881 -6.80165 214.346 2 207.5Z" stroke="black"/>
</svg>
